<svg xmlns="http://www.w3.org/2000/svg" viewBox="0 0 83.13 51.96"><defs><style>.cls-1{fill:#0078a9;}.cls-2{fill:#fff;}</style></defs><title>Amex</title><g id="Layer_2" data-name="Layer 2"><g id="Capa_1" data-name="Capa 1"><rect class="cls-1" width="83.13" height="51.96" rx="2.77" ry="2.77"/><path class="cls-2" d="M25.79,24.77v-.83l-.4.83H22l-.43-.89v.89H15.09L14.33,23H13l-.81,1.8H8.9V19.34l2.45-5.53H16l.66,1.57V13.82h5.73l1.26,2.64L24.9,13.8H43a3.08,3.08,0,0,1,1.57.43V13.8H49.1v.6a3.71,3.71,0,0,1,2-.6h8l.71,1.59V13.8H65L66,15.39V13.8h4.92v11H65.82l-1.19-1.91v1.9H58.34l-.88-2H56.23l-.83,2h-3.8A4.93,4.93,0,0,1,49.11,24v.78H41.54V22.21c0-.37-.28-.35-.28-.35H41v2.91Z"/><path class="cls-2" d="M22,27.14H32l1.44,1.63,1.47-1.63h7.65a3.52,3.52,0,0,1,1.4.38v-.38h6.81a3.48,3.48,0,0,1,1.59.43v-.43h8.76v.4a3,3,0,0,1,1.46-.4h5.71v.4a3.49,3.49,0,0,1,1.48-.4h4.48V37.49a2.47,2.47,0,0,1-1.81.67H66.5v-.33a3,3,0,0,1-1.42.33H49.39V35.48c0-.26-.11-.31-.35-.31h-.22v3h-4.9v-3a3.3,3.3,0,0,1-1.45.29H40.71v2.67h-6l-1.37-1.68-1.47,1.68H22Z"/><polygon class="cls-1" points="53.38 28.8 59.62 28.8 59.62 30.47 55.29 30.47 55.29 31.93 59.5 31.93 59.5 33.41 55.29 33.41 55.29 34.94 59.62 34.94 59.62 36.58 53.38 36.58 53.38 28.8"/><path class="cls-1" d="M71.69,31.83c2.35.12,2.54,1.29,2.54,2.54a2.27,2.27,0,0,1-2.45,2.24h-4V34.94H70.9c.53,0,1.32,0,1.32-.75,0-.35-.14-.58-.7-.64-.25,0-1.18-.09-1.32-.09-2.12-.06-2.61-1.11-2.61-2.39a2.14,2.14,0,0,1,2.28-2.26h4v1.67H70.93c-.67,0-1.39-.08-1.39.68,0,.48.36.57.81.62Z"/><path class="cls-1" d="M64.5,31.83c2.35.12,2.54,1.29,2.54,2.54a2.27,2.27,0,0,1-2.45,2.24h-4V34.94h3.13c.53,0,1.32,0,1.32-.75,0-.35-.14-.58-.7-.64-.25,0-1.18-.09-1.32-.09-2.12-.06-2.61-1.11-2.61-2.39a2.14,2.14,0,0,1,2.27-2.26h4v1.67H63.74c-.67,0-1.39-.08-1.39.68,0,.48.36.57.81.62Z"/><path class="cls-1" d="M41.85,28.81h-6.7L33,31.23,30.84,28.8H23.31v7.78h7.29L32.88,34l2.24,2.59h3.67V34h2.57c1,0,2.8,0,2.8-2.76A2.15,2.15,0,0,0,41.85,28.81ZM29.59,34.94H25.19V33.41H29.4V31.93H25.19V30.47h4.65l1.86,2.12Zm7.3.9L34.15,32.6l2.74-3Zm4.31-3.5H38.82V30.48h2.39a.94.94,0,1,1,0,1.87Z"/><path class="cls-1" d="M51.07,33.05a2.12,2.12,0,0,0,1.32-2.15,2.05,2.05,0,0,0-2.29-2.08h-5v7.78H47V33.85h2.5c.66,0,.92.66.94,1.32l.05,1.43h1.86L52.32,35C52.32,33.74,52,33.15,51.07,33.05Zm-1.65-.81H47V30.48h2.39a.92.92,0,0,1,1.05.89C50.48,31.9,50.21,32.24,49.42,32.24Z"/><rect class="cls-1" x="45.9" y="15.36" width="1.91" height="7.79"/><polygon class="cls-1" points="30.26 15.37 36.51 15.37 36.51 17.05 32.17 17.05 32.17 18.51 36.38 18.51 36.38 19.98 32.17 19.98 32.17 21.52 36.51 21.52 36.51 23.15 30.26 23.15 30.26 15.37"/><path class="cls-1" d="M43.58,19.61a2.12,2.12,0,0,0,1.32-2.15,2.05,2.05,0,0,0-2.29-2.08h-5v7.78h1.91V20.41h2.5c.66,0,.92.66.94,1.32L43,23.15H44.9l-.07-1.6C44.83,20.3,44.48,19.71,43.58,19.61Zm-1.65-.81H39.55V17h2.39a.92.92,0,0,1,1.05.89C43,18.46,42.71,18.8,41.93,18.8Z"/><path class="cls-1" d="M25.86,15.37l-2.34,5.22-2.34-5.22h-3v7.49l-3.33-7.49H12.32l-3.4,7.78h2l.75-1.74h3.81l.76,1.74h3.85V17.38l2.55,5.78h1.74L27,17.47v5.68H28.9V15.37ZM12.4,19.74,13.53,17l1.19,2.72Z"/><path class="cls-1" d="M67.52,15.37v5.39L64.3,15.37H61.48v7.31l-3.25-7.3H55.7l-2.63,6s-1.11,0-1.22,0c-.46-.09-1.18-.42-1.19-1.79V19c0-1.82,1-2,2.26-2h1.18V15.37H51.6c-.87,0-2.76.66-2.82,3.86,0,2.15.89,3.93,3,3.93h2.52l.75-1.74h3.81l.76,1.74h3.77v-5.7l3.44,5.7h2.61V15.37ZM55.79,19.74,56.93,17l1.2,2.72Z"/></g></g></svg>