<svg xmlns="http://www.w3.org/2000/svg" viewBox="0 0 26.77 26.77"><defs><style>.cls-1{fill:#fff;}</style></defs><title>Compartir</title><g id="Layer_2" data-name="Layer 2"><g id="Capa_1" data-name="Capa 1"><path class="cls-1" d="M4.6,18a4.6,4.6,0,1,1,4.6-4.6A4.6,4.6,0,0,1,4.6,18Zm0-8.3a3.7,3.7,0,1,0,3.7,3.7A3.71,3.71,0,0,0,4.6,9.68Z"/><path class="cls-1" d="M22.17,9.19a4.6,4.6,0,1,1,4.6-4.6A4.6,4.6,0,0,1,22.17,9.19Zm0-8.3a3.7,3.7,0,1,0,3.7,3.7A3.71,3.71,0,0,0,22.17.89Z"/><path class="cls-1" d="M22.17,26.77a4.6,4.6,0,1,1,4.6-4.6A4.6,4.6,0,0,1,22.17,26.77Zm0-8.3a3.7,3.7,0,1,0,3.7,3.7A3.71,3.71,0,0,0,22.17,18.47Z"/><rect class="cls-1" x="8.16" y="8.08" width="10.94" height="0.89" transform="translate(-2.38 7.07) rotate(-26.82)"/><rect class="cls-1" x="12.69" y="12.31" width="0.89" height="11.48" transform="translate(-8.78 22.27) rotate(-64.85)"/></g></g></svg>