<svg xmlns="http://www.w3.org/2000/svg" viewBox="0 0 13.59 26.77"><defs><style>.cls-1{fill:#fff;}</style></defs><title>Comprar</title><g id="Layer_2" data-name="Layer 2"><g id="Capa_1" data-name="Capa 1"><path class="cls-1" d="M7.67,12.26V3.68c2.37.23,3.91,1.53,4.24,3.62l0,.26h1.27l-.06-.36c-.32-2-1.53-4.39-5.49-4.66V0H6.47V2.52C3.1,2.64.86,4.72.86,7.77s1.89,4.3,5.62,5.39v9.63a5.42,5.42,0,0,1-5.2-4.31l-.05-.24H0l.06.36C.6,21.73,3,23.71,6.47,23.93v2.84h1.2V23.93c3.72-.19,5.92-2.33,5.92-5.76C13.59,14,9.86,12.85,7.67,12.26Zm0,10.54V13.48c2.42.68,4.67,1.69,4.67,4.75C12.34,20.94,10.6,22.63,7.67,22.8ZM6.47,3.66V11.9c-3.7-1.09-4.39-2.26-4.39-4.14C2.08,5.39,3.8,3.8,6.47,3.66Z"/></g></g></svg>