<svg xmlns="http://www.w3.org/2000/svg" viewBox="0 0 38.91 38.92"><defs><style>.cls-1{fill:#dd4b39;}.cls-2{fill:#fff;fill-rule:evenodd;}</style></defs><title>Google</title><g id="Layer_2" data-name="Layer 2"><g id="Capa_1" data-name="Capa 1"><rect class="cls-1" width="38.91" height="38.92"/><path class="cls-2" d="M14.62,18.25v2.9h4.8a4.57,4.57,0,0,1-4.8,3.65,5.34,5.34,0,0,1,0-10.68A4.76,4.76,0,0,1,18,15.42l2.3-2.21A8.11,8.11,0,0,0,14.62,11a8.46,8.46,0,1,0,0,16.92c4.88,0,8.12-3.43,8.12-8.27a7.78,7.78,0,0,0-.13-1.4Z"/><polygon class="cls-2" points="32.75 18.25 30.33 18.25 30.33 15.83 27.92 15.83 27.92 18.25 25.5 18.25 25.5 20.67 27.92 20.67 27.92 23.09 30.33 23.09 30.33 20.67 32.75 20.67 32.75 18.25"/></g></g></svg>