<svg xmlns="http://www.w3.org/2000/svg" viewBox="0 0 37.56 23.9"><defs><style>.cls-1{fill:#dd4b39;fill-rule:evenodd;}</style></defs><title>Google Alpha</title><g id="Layer_2" data-name="Layer 2"><g id="Capa_1" data-name="Capa 1"><path class="cls-1" d="M12,10.24v4.1h6.78c-.27,1.76-2,5.16-6.78,5.16A7.55,7.55,0,0,1,12,4.41a6.73,6.73,0,0,1,4.76,1.84L20,3.12A11.46,11.46,0,0,0,12,0a12,12,0,1,0,0,23.9c6.9,0,11.47-4.85,11.47-11.68a11,11,0,0,0-.19-2Z"/><polygon class="cls-1" points="37.56 10.24 34.15 10.24 34.15 6.83 30.73 6.83 30.73 10.24 27.32 10.24 27.32 13.66 30.73 13.66 30.73 17.07 34.15 17.07 34.15 13.66 37.56 13.66 37.56 10.24"/></g></g></svg>