<svg xmlns="http://www.w3.org/2000/svg" viewBox="0 0 33.37 34.28"><title>Instagram</title><g id="Layer_2" data-name="Layer 2"><g id="Capa_1" data-name="Capa 1"><path d="M23.66,0h-14A9.74,9.74,0,0,0,0,9.71V24.58a9.74,9.74,0,0,0,9.71,9.71h14a9.74,9.74,0,0,0,9.71-9.71V9.71A9.74,9.74,0,0,0,23.66,0ZM30.8,24.58a7.17,7.17,0,0,1-7.14,7.14h-14a7.17,7.17,0,0,1-7.14-7.14V9.71A7.17,7.17,0,0,1,9.71,2.57h14A7.17,7.17,0,0,1,30.8,9.71Z"/><path d="M25.92,17a9.19,9.19,0,1,1-9.19-9.19A9.19,9.19,0,0,1,25.92,17Zm-9.23-6a6,6,0,1,0,6,6A6,6,0,0,0,16.69,11Z"/><circle cx="26.07" cy="7.68" r="2.18"/></g></g></svg>