<svg xmlns="http://www.w3.org/2000/svg" viewBox="0 0 24.87 21.63"><defs><style>.cls-1{fill:#fff;fill-rule:evenodd;}</style></defs><title>Like</title><g id="Layer_2" data-name="Layer 2"><g id="Capa_1" data-name="Capa 1"><path class="cls-1" d="M12.45,21.63S0,16.22,0,7.68C0,2.7,3,0,6.19,0V1.08A4.62,4.62,0,0,0,2.71,2.69a7.38,7.38,0,0,0-1.63,5c0,6.89,9.24,11.73,11.37,12.75,2.12-1,11.34-5.89,11.34-12.81a7.13,7.13,0,0,0-1.62-4.89,4.65,4.65,0,0,0-3.48-1.56c-3.63,0-6.26,5.51-6.26,5.51S9.79,1.08,6.19,1.08V0h0c2.38,0,4.86,1.52,6.24,4.73C13.76,1.61,16.27.1,18.69.1c3.17,0,6.18,2.59,6.18,7.53C24.87,16.22,12.45,21.63,12.45,21.63ZM6.19,0Z"/></g></g></svg>