<svg xmlns="http://www.w3.org/2000/svg" viewBox="0 0 24.52 24.52"><defs><style>.cls-1{fill:#fff;}</style></defs><title>Listas</title><g id="Layer_2" data-name="Layer 2"><g id="Capa_1" data-name="Capa 1"><path class="cls-1" d="M19.73,24.52H4.79V23.44h14.4V1.08H5.33V18.93H4.25V.54A.54.54,0,0,1,4.79,0H19.73a.54.54,0,0,1,.54.54V24A.54.54,0,0,1,19.73,24.52Z"/><path class="cls-1" d="M19.73,24.52H4.79a.54.54,0,0,1-.41-.18L.14,19.53a.54.54,0,0,1,.41-.9H15.48a.54.54,0,0,1,.41.18l4.25,4.81a.54.54,0,0,1-.41.9ZM5,23.44h13.5l-3.29-3.72H1.74Z"/><path class="cls-1" d="M24,4.25H19.43V3.16h2.92l-2.8-2.08H4.79V0H19.73a.54.54,0,0,1,.32.11L24.3,3.27a.54.54,0,0,1-.32,1Z"/><rect class="cls-1" x="7.18" y="4.57" width="9.49" height="1.08"/><rect class="cls-1" x="7.18" y="7.4" width="9.49" height="1.08"/><rect class="cls-1" x="7.18" y="10.22" width="9.49" height="1.08"/><rect class="cls-1" x="7.18" y="13.05" width="9.49" height="1.08"/><rect class="cls-1" x="7.18" y="16.03" width="7.2" height="1.08"/></g></g></svg>