<svg xmlns="http://www.w3.org/2000/svg" viewBox="0 0 83.13 51.96"><defs><style>.cls-1{fill:#13457c;}.cls-2{fill:#fbb231;}.cls-2,.cls-3,.cls-4{fill-rule:evenodd;}.cls-3{fill:#ec1c2e;}.cls-4{fill:#fff;}.cls-5{fill:none;stroke:#fff;stroke-miterlimit:2.61;stroke-width:0.07px;}</style></defs><title>Master Card</title><g id="Layer_2" data-name="Layer 2"><g id="Capa_1" data-name="Capa 1"><rect class="cls-1" width="83.13" height="51.96" rx="2.77" ry="2.77"/><polygon class="cls-2" points="51.54 40.89 52.31 40.87 53.07 40.82 53.81 40.72 54.55 40.59 55.27 40.42 55.98 40.22 56.68 39.99 57.36 39.72 58.02 39.42 58.66 39.09 59.29 38.73 59.9 38.34 60.48 37.92 61.04 37.48 61.59 37.01 62.1 36.52 62.6 36 63.07 35.45 63.52 34.89 63.93 34.31 64.32 33.7 64.68 33.07 65.01 32.43 65.31 31.77 65.58 31.09 65.81 30.39 66.01 29.68 66.18 28.96 66.31 28.23 66.41 27.48 66.46 26.72 66.48 25.95 66.46 25.19 66.41 24.43 66.31 23.69 66.18 22.96 66.01 22.24 65.81 21.53 65.58 20.84 65.31 20.16 65.01 19.51 64.68 18.86 64.32 18.24 63.93 17.64 63.52 17.05 63.07 16.49 62.6 15.95 62.1 15.43 61.59 14.94 61.04 14.47 60.48 14.03 59.9 13.61 59.29 13.22 58.66 12.87 58.02 12.54 57.36 12.24 56.68 11.97 55.98 11.73 55.27 11.53 54.55 11.37 53.81 11.24 53.07 11.14 52.31 11.08 51.54 11.06 50.78 11.08 50.02 11.14 49.27 11.24 48.54 11.37 47.82 11.53 47.11 11.73 46.42 11.97 45.74 12.24 45.08 12.54 44.44 12.87 43.82 13.22 43.21 13.61 42.63 14.03 42.07 14.47 41.53 14.94 41.01 15.43 40.52 15.95 40.05 16.49 39.61 17.05 39.2 17.64 38.81 18.24 38.45 18.86 38.12 19.51 37.82 20.16 37.55 20.84 37.32 21.53 37.12 22.24 36.95 22.96 36.82 23.69 36.73 24.43 36.67 25.19 36.65 25.95 36.67 26.72 36.73 27.48 36.82 28.23 36.95 28.96 37.12 29.68 37.32 30.39 37.55 31.09 37.82 31.77 38.12 32.43 38.45 33.07 38.81 33.7 39.2 34.31 39.61 34.89 40.05 35.45 40.52 36 41.01 36.52 41.53 37.01 42.07 37.48 42.63 37.92 43.21 38.34 43.82 38.73 44.44 39.09 45.08 39.42 45.74 39.72 46.42 39.99 47.11 40.22 47.82 40.42 48.54 40.59 49.27 40.72 50.02 40.82 50.78 40.87 51.54 40.89 51.54 40.89 51.54 40.89"/><polygon class="cls-3" points="31.59 40.89 32.35 40.87 33.11 40.82 33.86 40.72 34.59 40.59 35.31 40.42 36.02 40.22 36.71 39.99 37.39 39.72 38.05 39.42 38.69 39.09 39.31 38.73 39.91 38.34 40.5 37.92 41.06 37.48 41.6 37.01 42.12 36.52 42.61 36 43.08 35.45 43.52 34.89 43.93 34.31 44.32 33.7 44.68 33.07 45.01 32.43 45.31 31.77 45.57 31.09 45.8 30.39 46.01 29.68 46.17 28.96 46.3 28.23 46.4 27.48 46.45 26.72 46.47 25.95 46.45 25.19 46.4 24.43 46.3 23.69 46.17 22.96 46.01 22.24 45.8 21.53 45.57 20.84 45.31 20.16 45.01 19.51 44.68 18.86 44.32 18.24 43.93 17.64 43.52 17.05 43.08 16.49 42.61 15.95 42.12 15.43 41.6 14.94 41.06 14.47 40.5 14.03 39.91 13.61 39.31 13.22 38.69 12.87 38.05 12.54 37.39 12.24 36.71 11.97 36.02 11.73 35.31 11.53 34.59 11.37 33.86 11.24 33.11 11.14 32.35 11.08 31.59 11.06 30.82 11.08 30.06 11.14 29.31 11.24 28.57 11.37 27.86 11.53 27.15 11.73 26.45 11.97 25.77 12.24 25.11 12.54 24.46 12.87 23.84 13.22 23.23 13.61 22.65 14.03 22.09 14.47 21.54 14.94 21.02 15.43 20.52 15.95 20.06 16.49 19.61 17.05 19.2 17.64 18.81 18.24 18.45 18.86 18.12 19.51 17.82 20.16 17.55 20.84 17.32 21.53 17.11 22.24 16.95 22.96 16.82 23.69 16.72 24.43 16.67 25.19 16.65 25.95 16.67 26.72 16.72 27.48 16.82 28.23 16.95 28.96 17.11 29.68 17.32 30.39 17.55 31.09 17.82 31.77 18.12 32.43 18.45 33.07 18.81 33.7 19.2 34.31 19.61 34.89 20.06 35.45 20.52 36 21.02 36.52 21.54 37.01 22.09 37.48 22.65 37.92 23.23 38.34 23.84 38.73 24.46 39.09 25.11 39.42 25.77 39.72 26.45 39.99 27.15 40.22 27.86 40.42 28.57 40.59 29.31 40.72 30.06 40.82 30.82 40.87 31.59 40.89 31.59 40.89 31.59 40.89"/><polygon class="cls-2" points="39.82 16.79 47.74 16.79 47.74 15.97 40.5 15.97 39.82 16.79 39.82 16.79 39.82 16.79"/><polygon class="cls-2" points="38.63 18.59 47.74 18.59 47.74 17.77 39.11 17.77 38.63 18.59 38.63 18.59 38.63 18.59"/><polygon class="cls-2" points="37.74 20.38 47.74 20.38 47.74 19.57 38.1 19.57 37.74 20.38 37.74 20.38 37.74 20.38"/><polygon class="cls-2" points="37.14 22.18 47.74 22.18 47.74 21.37 37.39 21.37 37.14 22.18 37.14 22.18 37.14 22.18"/><polygon class="cls-2" points="37.49 30.89 47.77 30.89 47.77 30.08 37.24 30.08 37.49 30.89 37.49 30.89 37.49 30.89"/><polygon class="cls-2" points="38.25 32.69 47.77 32.69 47.77 31.88 37.87 31.88 38.25 32.69 38.25 32.69 38.25 32.69"/><polygon class="cls-2" points="39.31 34.48 47.77 34.48 47.77 33.67 38.81 33.67 39.31 34.48 39.31 34.48 39.31 34.48"/><polygon class="cls-2" points="40.78 36.28 47.77 36.28 47.77 35.47 40.08 35.47 40.78 36.28 40.78 36.28 40.78 36.28"/><polygon class="cls-2" points="36.78 23.98 47.74 23.98 47.74 23.17 36.94 23.17 36.78 23.98 36.78 23.98 36.78 23.98"/><polygon class="cls-2" points="43.46 29.09 47.64 29.09 47.64 28.28 43.61 28.28 43.46 29.09 43.46 29.09 43.46 29.09"/><polygon class="cls-2" points="43.79 27.29 47.64 27.29 47.64 26.48 43.94 26.48 43.79 27.29 43.79 27.29 43.79 27.29"/><polygon class="cls-2" points="36.5 26.48 37.59 26.48 37.59 27.29 36.55 27.29 36.5 26.48 36.5 26.48 36.5 26.48"/><polygon class="cls-4" points="34.48 25.5 34.41 25.49 34.33 25.48 34.27 25.47 34.2 25.46 34.14 25.45 34.08 25.44 34.01 25.43 33.94 25.42 33.87 25.41 33.79 25.41 33.7 25.4 33.61 25.4 33.5 25.4 33.38 25.4 33.25 25.41 33.11 25.42 33.01 25.44 32.91 25.45 32.83 25.48 32.75 25.51 32.68 25.55 32.62 25.59 32.56 25.64 32.52 25.68 32.49 25.74 32.46 25.8 32.45 25.86 32.45 25.91 32.47 25.98 32.49 26.05 32.53 26.11 32.58 26.18 32.68 26.27 32.8 26.35 32.94 26.41 33.09 26.47 33.25 26.52 33.42 26.57 33.59 26.64 33.75 26.7 33.9 26.79 34.04 26.89 34.16 27.02 34.27 27.17 34.35 27.36 34.4 27.59 34.42 27.86 34.4 28.18 34.37 28.42 34.3 28.62 34.22 28.81 34.12 28.98 34.01 29.13 33.88 29.25 33.74 29.36 33.58 29.46 33.42 29.53 33.25 29.6 33.08 29.65 32.91 29.69 32.73 29.72 32.57 29.73 32.4 29.74 32.25 29.75 32.03 29.75 31.83 29.74 31.65 29.74 31.49 29.74 31.34 29.73 31.2 29.72 31.08 29.71 30.96 29.7 30.86 29.69 30.76 29.67 30.67 29.65 30.58 29.63 30.5 29.61 30.42 29.58 30.34 29.55 30.25 29.52 30.48 28.41 30.52 28.42 30.58 28.43 30.65 28.45 30.73 28.47 30.82 28.49 30.92 28.51 31.03 28.54 31.16 28.56 31.28 28.58 31.41 28.6 31.55 28.61 31.69 28.63 31.83 28.63 31.98 28.64 32.13 28.64 32.27 28.63 32.42 28.6 32.53 28.56 32.63 28.51 32.7 28.44 32.74 28.37 32.78 28.28 32.81 28.2 32.83 28.13 32.84 27.98 32.8 27.86 32.71 27.76 32.58 27.67 32.43 27.6 32.26 27.52 32.06 27.45 31.86 27.37 31.66 27.28 31.47 27.17 31.3 27.04 31.14 26.89 31.01 26.7 30.92 26.47 30.87 26.2 30.88 25.88 30.9 25.68 30.94 25.49 30.99 25.32 31.05 25.16 31.13 25.01 31.22 24.88 31.33 24.75 31.45 24.64 31.6 24.55 31.76 24.47 31.94 24.39 32.14 24.34 32.37 24.29 32.62 24.25 32.88 24.23 33.18 24.23 33.37 24.23 33.54 24.23 33.7 24.24 33.84 24.25 33.96 24.25 34.08 24.27 34.18 24.27 34.27 24.29 34.35 24.3 34.42 24.31 34.49 24.32 34.55 24.33 34.6 24.34 34.65 24.35 34.69 24.36 34.73 24.36 34.48 25.5 34.48 25.5 34.48 25.5"/><polyline class="cls-5" points="34.48 25.5 34.48 25.5 34.41 25.49 34.33 25.48 34.27 25.47 34.2 25.46 34.14 25.45 34.08 25.44 34.01 25.43 33.94 25.42 33.87 25.41 33.79 25.41 33.7 25.4 33.61 25.4 33.5 25.4 33.38 25.4 33.25 25.41 33.11 25.42 33.11 25.42 33.01 25.44 32.91 25.45 32.83 25.48 32.75 25.51 32.68 25.55 32.62 25.59 32.56 25.64 32.52 25.68 32.49 25.74 32.46 25.8 32.45 25.86 32.45 25.91 32.47 25.98 32.49 26.05 32.53 26.11 32.58 26.18 32.58 26.18 32.68 26.27 32.8 26.35 32.94 26.41 33.09 26.47 33.25 26.52 33.42 26.57 33.59 26.64 33.75 26.7 33.9 26.79 34.04 26.89 34.16 27.02 34.27 27.17 34.35 27.36 34.4 27.59 34.42 27.86 34.4 28.18 34.4 28.18 34.37 28.42 34.3 28.62 34.22 28.81 34.12 28.98 34.01 29.13 33.88 29.25 33.74 29.36 33.58 29.46 33.42 29.53 33.25 29.6 33.08 29.65 32.91 29.69 32.73 29.72 32.57 29.73 32.4 29.74 32.25 29.75 32.25 29.75 32.03 29.75 31.83 29.74 31.65 29.74 31.49 29.74 31.34 29.73 31.2 29.72 31.08 29.71 30.96 29.7 30.86 29.69 30.76 29.67 30.67 29.65 30.58 29.63 30.5 29.61 30.42 29.58 30.34 29.55 30.25 29.52 30.48 28.41 30.48 28.41 30.52 28.42 30.58 28.43 30.65 28.45 30.73 28.47 30.82 28.49 30.92 28.51 31.03 28.54 31.16 28.56 31.28 28.58 31.41 28.6 31.55 28.61 31.69 28.63 31.83 28.63 31.98 28.64 32.13 28.64 32.27 28.63 32.27 28.63 32.42 28.6 32.53 28.56 32.63 28.51 32.7 28.44 32.74 28.37 32.78 28.28 32.81 28.2 32.83 28.13 32.83 28.13 32.84 27.98 32.8 27.86 32.71 27.76 32.58 27.67 32.43 27.6 32.26 27.52 32.06 27.45 31.86 27.37 31.66 27.28 31.47 27.17 31.3 27.04 31.14 26.89 31.01 26.7 30.92 26.47 30.87 26.2 30.88 25.88 30.88 25.88 30.9 25.68 30.94 25.49 30.99 25.32 31.05 25.16 31.13 25.01 31.22 24.88 31.33 24.75 31.45 24.64 31.6 24.55 31.76 24.47 31.94 24.39 32.14 24.34 32.37 24.29 32.62 24.25 32.88 24.23 33.18 24.23 33.18 24.23 33.37 24.23 33.54 24.23 33.7 24.24 33.84 24.25 33.96 24.25 34.08 24.27 34.18 24.27 34.27 24.29 34.35 24.3 34.42 24.31 34.49 24.32 34.55 24.33 34.6 24.34 34.65 24.35 34.69 24.36 34.73 24.36 34.48 25.5"/><polygon class="cls-4" points="35.67 23.12 37.06 23.12 36.85 24.34 37.7 24.34 37.51 25.47 36.63 25.45 36.15 28.25 36.14 28.36 36.16 28.44 36.22 28.51 36.28 28.56 36.37 28.6 36.47 28.63 36.58 28.65 36.7 28.66 36.81 28.65 36.92 28.64 37.01 28.63 37.09 28.61 37.15 28.59 37.2 28.57 37.23 28.56 37.24 28.56 37.06 29.49 37.03 29.52 36.99 29.54 36.95 29.56 36.92 29.58 36.88 29.59 36.84 29.61 36.8 29.62 36.75 29.64 36.7 29.65 36.65 29.66 36.59 29.67 36.53 29.68 36.47 29.69 36.39 29.7 36.31 29.71 36.23 29.72 35.84 29.72 35.64 29.71 35.47 29.69 35.31 29.66 35.17 29.62 35.05 29.58 34.96 29.53 34.87 29.47 34.81 29.4 34.76 29.33 34.72 29.25 34.7 29.16 34.68 29.07 34.68 28.96 34.68 28.85 34.69 28.73 34.71 28.61 35.67 23.12 35.67 23.12 35.67 23.12"/><polyline class="cls-5" points="35.67 23.12 37.06 23.12 36.85 24.34 37.7 24.34 37.51 25.47 36.63 25.45 36.15 28.25 36.15 28.25 36.14 28.36 36.16 28.44 36.22 28.51 36.28 28.56 36.37 28.6 36.47 28.63 36.58 28.65 36.7 28.66 36.7 28.66 36.81 28.65 36.92 28.64 37.01 28.63 37.09 28.61 37.15 28.59 37.2 28.57 37.23 28.56 37.24 28.56 37.06 29.49 37.06 29.49 37.03 29.52 36.99 29.54 36.95 29.56 36.92 29.58 36.88 29.59 36.84 29.61 36.8 29.62 36.75 29.64 36.7 29.65 36.65 29.66 36.59 29.67 36.53 29.68 36.47 29.69 36.39 29.7 36.31 29.71 36.23 29.72 35.84 29.72 35.84 29.72 35.64 29.71 35.47 29.69 35.31 29.66 35.17 29.62 35.05 29.58 34.96 29.53 34.87 29.47 34.81 29.4 34.76 29.33 34.72 29.25 34.7 29.16 34.68 29.07 34.68 28.96 34.68 28.85 34.69 28.73 34.71 28.61 35.67 23.12"/><polyline class="cls-5" points="38.81 27.37 38.81 27.37 38.79 27.45 38.79 27.55 38.8 27.64 38.82 27.74 38.85 27.83 38.89 27.92 38.95 28.02 39.01 28.1 39.08 28.19 39.15 28.27 39.23 28.34 39.33 28.4 39.41 28.46 39.52 28.5 39.62 28.54 39.72 28.56 39.72 28.56 39.85 28.58 39.97 28.59 40.1 28.61 40.24 28.62 40.37 28.62 40.5 28.62 40.63 28.62 40.77 28.61 40.9 28.59 41.04 28.56 41.18 28.53 41.32 28.49 41.46 28.43 41.6 28.37 41.74 28.29 41.89 28.2 41.69 29.44 41.69 29.44 41.61 29.48 41.53 29.52 41.45 29.55 41.37 29.58 41.3 29.61 41.22 29.63 41.14 29.65 41.05 29.67 40.96 29.68 40.86 29.69 40.75 29.7 40.64 29.71 40.51 29.72 40.37 29.72 40.22 29.72 40.05 29.72 40.05 29.72 39.8 29.72 39.55 29.69 39.3 29.66 39.05 29.6 38.8 29.52 38.56 29.43 38.34 29.3 38.13 29.16 37.93 28.98 37.76 28.78 37.62 28.55 37.49 28.28 37.41 27.98 37.35 27.64 37.34 27.27 37.36 26.86 37.36 26.86 37.38 26.7 37.41 26.51 37.45 26.32 37.51 26.11 37.59 25.89 37.67 25.67 37.79 25.45 37.93 25.24 38.09 25.04 38.29 24.85 38.51 24.68 38.76 24.53 39.05 24.4 39.38 24.31 39.74 24.25 40.15 24.23 40.15 24.23 40.35 24.23 40.55 24.25 40.76 24.29 40.97 24.34 41.17 24.42 41.36 24.51 41.54 24.63 41.71 24.77 41.86 24.94 41.99 25.14 42.09 25.37 42.16 25.64 42.2 25.94 42.2 26.28 42.17 26.66 42.09 27.09 42.07 27.39 38.4 27.39 38.63 26.4 40.84 26.4 40.84 26.4 40.84 26.28 40.84 26.16 40.83 26.05 40.81 25.95 40.77 25.85 40.74 25.76 40.69 25.69 40.64 25.62 40.58 25.56 40.51 25.51 40.44 25.46 40.36 25.42 40.28 25.39 40.2 25.37 40.12 25.36 40.03 25.35 40.03 25.35 39.93 25.35 39.84 25.37 39.75 25.39 39.67 25.42 39.58 25.46 39.51 25.5 39.43 25.56 39.37 25.62 39.3 25.69 39.24 25.76 39.19 25.84 39.14 25.93 39.09 26.02 39.06 26.12 39.03 26.22 39.01 26.33 38.81 27.37"/><polygon class="cls-4" points="50.81 24.64 50.74 24.6 50.67 24.57 50.6 24.54 50.53 24.5 50.45 24.47 50.37 24.44 50.28 24.41 50.19 24.38 50.1 24.36 50 24.34 49.89 24.32 49.79 24.3 49.67 24.29 49.56 24.28 49.44 24.28 49.31 24.28 49.19 24.28 49.05 24.29 48.92 24.31 48.78 24.33 48.64 24.37 48.5 24.43 48.36 24.5 48.21 24.59 48.08 24.7 47.95 24.83 47.82 24.99 47.7 25.18 47.59 25.4 47.48 25.65 47.39 25.93 47.31 26.25 47.28 26.43 47.26 26.61 47.25 26.79 47.25 26.96 47.27 27.13 47.3 27.29 47.35 27.44 47.41 27.59 47.48 27.73 47.57 27.86 47.68 27.97 47.8 28.08 47.93 28.17 48.09 28.25 48.26 28.31 48.45 28.36 48.52 28.37 48.59 28.39 48.68 28.4 48.78 28.41 48.89 28.42 49.01 28.42 49.14 28.42 49.26 28.41 49.39 28.39 49.52 28.37 49.65 28.33 49.77 28.29 49.9 28.23 50.02 28.17 50.12 28.09 50.22 28 49.99 29.34 49.97 29.37 49.94 29.4 49.89 29.43 49.85 29.46 49.8 29.5 49.72 29.54 49.64 29.57 49.55 29.6 49.44 29.64 49.31 29.66 49.16 29.68 48.98 29.7 48.78 29.71 48.56 29.72 48.3 29.71 48.02 29.7 47.79 29.67 47.55 29.62 47.32 29.55 47.09 29.45 46.87 29.33 46.66 29.18 46.46 29 46.27 28.8 46.11 28.57 45.97 28.32 45.84 28.04 45.76 27.73 45.7 27.39 45.67 27.04 45.69 26.64 45.74 26.23 45.78 26.02 45.83 25.82 45.88 25.62 45.93 25.44 45.98 25.26 46.05 25.09 46.11 24.92 46.18 24.76 46.26 24.61 46.33 24.46 46.42 24.32 46.51 24.19 46.6 24.06 46.7 23.94 46.8 23.83 46.91 23.73 47.02 23.63 47.14 23.53 47.26 23.45 47.39 23.36 47.52 23.29 47.66 23.23 47.8 23.16 47.94 23.11 48.1 23.06 48.25 23.02 48.42 22.98 48.59 22.95 48.76 22.93 48.94 22.91 49.12 22.9 49.31 22.89 49.47 22.9 49.63 22.91 49.78 22.92 49.93 22.94 50.07 22.96 50.21 22.99 50.34 23.02 50.46 23.05 50.57 23.08 50.67 23.11 50.77 23.14 50.85 23.17 50.92 23.19 50.98 23.21 51.03 23.23 51.06 23.25 50.81 24.64 50.81 24.64 50.81 24.64"/><polyline class="cls-5" points="50.81 24.64 50.81 24.64 50.74 24.6 50.67 24.57 50.6 24.54 50.53 24.5 50.45 24.47 50.37 24.44 50.28 24.41 50.19 24.38 50.1 24.36 50 24.34 49.89 24.32 49.79 24.3 49.67 24.29 49.56 24.28 49.44 24.28 49.31 24.28 49.31 24.28 49.19 24.28 49.05 24.29 48.92 24.31 48.78 24.33 48.64 24.37 48.5 24.43 48.36 24.5 48.21 24.59 48.08 24.7 47.95 24.83 47.82 24.99 47.7 25.18 47.59 25.4 47.48 25.65 47.39 25.93 47.31 26.25 47.31 26.25 47.28 26.43 47.26 26.61 47.25 26.79 47.25 26.96 47.27 27.13 47.3 27.29 47.35 27.44 47.41 27.59 47.48 27.73 47.57 27.86 47.68 27.97 47.8 28.08 47.93 28.17 48.09 28.25 48.26 28.31 48.45 28.36 48.45 28.36 48.52 28.37 48.59 28.39 48.68 28.4 48.78 28.41 48.89 28.42 49.01 28.42 49.14 28.42 49.26 28.41 49.39 28.39 49.52 28.37 49.65 28.33 49.77 28.29 49.9 28.23 50.02 28.17 50.12 28.09 50.22 28 49.99 29.34 49.99 29.34 49.97 29.37 49.94 29.4 49.89 29.43 49.85 29.46 49.8 29.5 49.72 29.54 49.64 29.57 49.55 29.6 49.44 29.64 49.31 29.66 49.16 29.68 48.98 29.7 48.78 29.71 48.56 29.72 48.3 29.71 48.02 29.7 48.02 29.7 47.79 29.67 47.55 29.62 47.32 29.55 47.09 29.45 46.87 29.33 46.66 29.18 46.46 29 46.27 28.8 46.11 28.57 45.97 28.32 45.84 28.04 45.76 27.73 45.7 27.39 45.67 27.04 45.69 26.64 45.74 26.23 45.74 26.23 45.78 26.02 45.83 25.82 45.88 25.62 45.93 25.44 45.98 25.26 46.05 25.09 46.11 24.92 46.18 24.76 46.26 24.61 46.33 24.46 46.42 24.32 46.51 24.19 46.6 24.06 46.7 23.94 46.8 23.83 46.91 23.73 47.02 23.63 47.14 23.53 47.26 23.45 47.39 23.36 47.52 23.29 47.66 23.23 47.8 23.16 47.94 23.11 48.1 23.06 48.25 23.02 48.42 22.98 48.59 22.95 48.76 22.93 48.94 22.91 49.12 22.9 49.31 22.89 49.31 22.89 49.47 22.9 49.63 22.91 49.78 22.92 49.93 22.94 50.07 22.96 50.21 22.99 50.34 23.02 50.46 23.05 50.57 23.08 50.67 23.11 50.77 23.14 50.85 23.17 50.92 23.19 50.98 23.21 51.03 23.23 51.06 23.25 50.81 24.64"/><polygon class="cls-4" points="63.19 29.72 61.8 29.72 61.9 29.17 61.9 29.11 61.82 29.22 61.73 29.31 61.65 29.39 61.56 29.46 61.47 29.52 61.38 29.58 61.28 29.62 61.19 29.67 61.09 29.7 61 29.73 60.9 29.75 60.8 29.77 60.7 29.78 60.6 29.79 60.51 29.8 60.4 29.8 60.14 29.78 59.9 29.72 59.68 29.64 59.48 29.52 59.3 29.38 59.14 29.21 59 29.02 58.88 28.81 58.77 28.58 58.69 28.35 58.64 28.1 58.6 27.84 58.58 27.59 58.59 27.32 58.61 27.07 58.66 26.81 58.73 26.51 58.83 26.23 58.93 25.98 59.06 25.73 59.19 25.51 59.34 25.31 59.49 25.13 59.66 24.96 59.84 24.81 60.02 24.69 60.21 24.58 60.4 24.49 60.6 24.42 60.81 24.38 61.01 24.35 61.21 24.34 61.36 24.34 61.5 24.36 61.63 24.38 61.75 24.42 61.87 24.46 61.97 24.5 62.07 24.56 62.16 24.61 62.24 24.67 62.32 24.74 62.38 24.8 62.44 24.87 62.49 24.93 62.54 25 62.58 25.06 62.61 25.12 62.61 25.12 62.96 23.14 64.33 23.14 63.19 29.72 63.19 29.72 63.19 29.72"/><polyline class="cls-5" points="63.19 29.72 61.8 29.72 61.9 29.17 61.9 29.11 61.9 29.11 61.82 29.22 61.73 29.31 61.65 29.39 61.56 29.46 61.47 29.52 61.38 29.58 61.28 29.62 61.19 29.67 61.09 29.7 61 29.73 60.9 29.75 60.8 29.77 60.7 29.78 60.6 29.79 60.51 29.8 60.4 29.8 60.4 29.8 60.14 29.78 59.9 29.72 59.68 29.64 59.48 29.52 59.3 29.38 59.14 29.21 59 29.02 58.88 28.81 58.77 28.58 58.69 28.35 58.64 28.1 58.6 27.84 58.58 27.59 58.59 27.32 58.61 27.07 58.66 26.81 58.66 26.81 58.73 26.51 58.83 26.23 58.93 25.98 59.06 25.73 59.19 25.51 59.34 25.31 59.49 25.13 59.66 24.96 59.84 24.81 60.02 24.69 60.21 24.58 60.4 24.49 60.6 24.42 60.81 24.38 61.01 24.35 61.21 24.34 61.21 24.34 61.36 24.34 61.5 24.36 61.63 24.38 61.75 24.42 61.87 24.46 61.97 24.5 62.07 24.56 62.16 24.61 62.24 24.67 62.32 24.74 62.38 24.8 62.44 24.87 62.49 24.93 62.54 25 62.58 25.06 62.61 25.12 62.61 25.12 62.96 23.14 64.33 23.14 63.19 29.72"/><polygon class="cls-2" points="60.91 28.51 61.05 28.5 61.19 28.47 61.3 28.43 61.42 28.38 61.53 28.32 61.63 28.24 61.72 28.16 61.81 28.06 61.88 27.96 61.95 27.85 62.02 27.74 62.08 27.62 62.12 27.49 62.17 27.36 62.2 27.22 62.23 27.09 62.25 26.95 62.27 26.8 62.27 26.66 62.26 26.52 62.25 26.39 62.23 26.27 62.19 26.15 62.15 26.03 62.1 25.93 62.04 25.84 61.97 25.75 61.9 25.68 61.81 25.62 61.72 25.58 61.63 25.56 61.52 25.55 61.38 25.56 61.26 25.58 61.14 25.62 61.03 25.67 60.93 25.73 60.83 25.82 60.74 25.9 60.66 26 60.58 26.11 60.51 26.22 60.44 26.34 60.39 26.47 60.34 26.61 60.3 26.75 60.26 26.89 60.23 27.04 60.2 27.26 60.21 27.5 60.25 27.75 60.31 27.98 60.41 28.19 60.55 28.36 60.71 28.47 60.91 28.51 60.91 28.51 60.91 28.51"/><polygon class="cls-4" points="30.02 28.61 29.82 29.72 28.55 29.72 28.58 29.52 28.61 29.33 28.63 29.19 28.65 29.11 28.58 29.2 28.5 29.28 28.4 29.35 28.3 29.42 28.18 29.49 28.05 29.55 27.92 29.61 27.79 29.66 27.64 29.71 27.49 29.74 27.35 29.77 27.2 29.79 27.05 29.8 26.91 29.81 26.76 29.79 26.63 29.77 26.45 29.73 26.29 29.68 26.15 29.61 26.02 29.54 25.91 29.46 25.81 29.37 25.73 29.27 25.66 29.17 25.6 29.07 25.55 28.95 25.51 28.84 25.48 28.73 25.46 28.62 25.45 28.5 25.43 28.39 25.43 28.28 25.45 28.08 25.48 27.9 25.53 27.72 25.6 27.55 25.68 27.39 25.77 27.24 25.87 27.1 25.99 26.98 26.12 26.86 26.26 26.75 26.41 26.66 26.56 26.58 26.72 26.51 26.88 26.45 27.05 26.41 27.23 26.38 27.24 26.38 27.27 26.37 27.3 26.37 27.36 26.36 27.42 26.35 27.49 26.35 27.56 26.34 27.65 26.33 27.73 26.32 27.82 26.31 27.91 26.3 27.99 26.29 28.07 26.29 28.15 26.28 28.22 26.28 28.27 26.28 28.39 26.28 28.51 26.28 28.62 26.29 28.73 26.29 28.82 26.29 28.89 26.3 28.94 26.3 28.96 26.3 28.97 26.27 29 26.18 29.02 26.07 29.03 25.98 29.01 25.87 28.97 25.76 28.91 25.67 28.83 25.6 28.73 25.53 28.63 25.49 28.5 25.46 28.37 25.45 28.23 25.44 28.08 25.44 27.93 25.44 27.77 25.44 27.6 25.45 27.44 25.47 27.28 25.48 27.12 25.5 26.97 25.52 26.82 25.55 26.69 25.57 26.57 25.6 26.46 25.63 26.37 25.66 26.3 25.69 26.25 25.72 26.6 24.51 26.71 24.47 26.82 24.43 26.95 24.39 27.07 24.37 27.19 24.34 27.32 24.32 27.45 24.3 27.58 24.29 27.72 24.28 27.87 24.27 28.02 24.27 28.18 24.27 28.34 24.27 28.5 24.27 28.68 24.27 28.86 24.28 29 24.29 29.15 24.32 29.3 24.35 29.46 24.4 29.62 24.46 29.77 24.53 29.92 24.61 30.06 24.71 30.19 24.82 30.3 24.94 30.4 25.07 30.48 25.23 30.53 25.39 30.56 25.56 30.56 25.75 30.53 25.95 30.02 28.61 30.02 28.61 30.02 28.61"/><polyline class="cls-5" points="30.02 28.61 29.82 29.72 28.55 29.72 28.55 29.72 28.58 29.52 28.61 29.33 28.63 29.19 28.65 29.11 28.65 29.11 28.58 29.2 28.5 29.28 28.4 29.35 28.3 29.42 28.18 29.49 28.05 29.55 27.92 29.61 27.79 29.66 27.64 29.71 27.49 29.74 27.35 29.77 27.2 29.79 27.05 29.8 26.91 29.81 26.76 29.79 26.63 29.77 26.63 29.77 26.45 29.73 26.29 29.68 26.15 29.61 26.02 29.54 25.91 29.46 25.81 29.37 25.73 29.27 25.66 29.17 25.6 29.07 25.55 28.95 25.51 28.84 25.48 28.73 25.46 28.62 25.45 28.5 25.43 28.39 25.43 28.28 25.43 28.28 25.45 28.08 25.48 27.9 25.53 27.72 25.6 27.55 25.68 27.39 25.77 27.24 25.87 27.1 25.99 26.98 26.12 26.86 26.26 26.75 26.41 26.66 26.56 26.58 26.72 26.51 26.88 26.45 27.05 26.41 27.23 26.38 27.23 26.38 27.24 26.38 27.27 26.37 27.3 26.37 27.36 26.36 27.42 26.35 27.49 26.35 27.56 26.34 27.65 26.33 27.73 26.32 27.82 26.31 27.91 26.3 27.99 26.29 28.07 26.29 28.15 26.28 28.22 26.28 28.27 26.28 28.27 26.28 28.39 26.28 28.51 26.28 28.62 26.29 28.73 26.29 28.82 26.29 28.89 26.3 28.94 26.3 28.96 26.3 28.96 26.3 28.97 26.27 29 26.18 29.02 26.07 29.03 25.98 29.03 25.98 29.01 25.87 28.97 25.76 28.91 25.67 28.83 25.6 28.73 25.53 28.63 25.49 28.5 25.46 28.37 25.45 28.37 25.45 28.23 25.44 28.08 25.44 27.93 25.44 27.77 25.44 27.6 25.45 27.44 25.47 27.28 25.48 27.12 25.5 26.97 25.52 26.82 25.55 26.69 25.57 26.57 25.6 26.46 25.63 26.37 25.66 26.3 25.69 26.25 25.72 26.6 24.51 26.6 24.51 26.71 24.47 26.82 24.43 26.95 24.39 27.07 24.37 27.19 24.34 27.32 24.32 27.45 24.3 27.58 24.29 27.72 24.28 27.87 24.27 28.02 24.27 28.18 24.27 28.34 24.27 28.5 24.27 28.68 24.27 28.86 24.28 28.86 24.28 29 24.29 29.15 24.32 29.3 24.35 29.46 24.4 29.62 24.46 29.77 24.53 29.92 24.61 30.06 24.71 30.19 24.82 30.3 24.94 30.4 25.07 30.48 25.23 30.53 25.39 30.56 25.56 30.56 25.75 30.53 25.95 30.02 28.61"/><polygon class="cls-3" points="28.81 27.29 28.8 27.27 28.78 27.24 28.75 27.23 28.7 27.22 28.64 27.21 28.58 27.2 28.5 27.2 28.43 27.2 28.35 27.21 28.26 27.22 28.18 27.23 28.1 27.24 28.03 27.25 27.95 27.26 27.89 27.28 27.84 27.29 27.8 27.3 27.77 27.32 27.71 27.34 27.65 27.36 27.59 27.39 27.52 27.43 27.45 27.46 27.39 27.5 27.32 27.56 27.25 27.61 27.19 27.67 27.14 27.73 27.09 27.79 27.05 27.86 27.02 27.94 27 28.02 27 28.2 27.02 28.33 27.07 28.43 27.14 28.51 27.22 28.56 27.3 28.59 27.38 28.6 27.46 28.61 27.61 28.6 27.75 28.59 27.88 28.57 28 28.54 28.1 28.5 28.19 28.46 28.28 28.41 28.35 28.36 28.42 28.3 28.48 28.25 28.53 28.19 28.57 28.13 28.61 28.07 28.63 28.01 28.66 27.95 28.68 27.9 28.72 27.75 28.75 27.59 28.78 27.43 28.81 27.29 28.81 27.29 28.81 27.29"/><polygon class="cls-4" points="19.43 29.72 18.07 29.72 19.21 23.12 21.59 23.12 21.81 27.04 23.46 23.12 25.94 23.12 24.78 29.72 23.41 29.72 24.27 24.79 24.22 24.79 22.17 29.72 20.63 29.72 20.62 29.52 20.58 28.97 20.54 28.19 20.48 27.29 20.43 26.39 20.39 25.6 20.35 25.03 20.34 24.79 20.33 24.79 20.3 24.79 20.27 24.79 20.27 24.79 19.43 29.72 19.43 29.72 19.43 29.72"/><polyline class="cls-5" points="19.43 29.72 18.07 29.72 19.21 23.12 21.59 23.12 21.81 27.04 23.46 23.12 25.94 23.12 24.78 29.72 23.41 29.72 24.27 24.79 24.22 24.79 22.17 29.72 20.63 29.72 20.63 29.72 20.62 29.52 20.58 28.97 20.54 28.19 20.48 27.29 20.43 26.39 20.39 25.6 20.35 25.03 20.34 24.79 20.34 24.79 20.33 24.79 20.3 24.79 20.27 24.79 20.27 24.79 19.43 29.72"/><polygon class="cls-4" points="54.99 28.61 54.78 29.72 53.52 29.72 53.53 29.52 53.53 29.34 53.53 29.2 53.54 29.14 53.48 29.22 53.4 29.29 53.31 29.36 53.21 29.43 53.1 29.5 52.98 29.56 52.86 29.62 52.73 29.67 52.6 29.71 52.46 29.75 52.31 29.77 52.17 29.79 52.03 29.8 51.89 29.81 51.75 29.79 51.62 29.77 51.44 29.73 51.27 29.68 51.13 29.61 51 29.54 50.89 29.46 50.8 29.37 50.72 29.27 50.64 29.17 50.58 29.07 50.54 28.95 50.5 28.84 50.47 28.73 50.45 28.62 50.44 28.5 50.43 28.39 50.43 28.28 50.44 28.08 50.47 27.9 50.51 27.72 50.58 27.55 50.65 27.39 50.75 27.24 50.86 27.1 50.97 26.98 51.1 26.86 51.24 26.75 51.38 26.66 51.54 26.58 51.7 26.51 51.86 26.45 52.03 26.41 52.2 26.38 52.21 26.38 52.23 26.37 52.27 26.37 52.32 26.36 52.38 26.35 52.46 26.35 52.53 26.34 52.61 26.33 52.7 26.32 52.79 26.31 52.87 26.3 52.96 26.29 53.04 26.29 53.11 26.28 53.18 26.28 53.23 26.28 53.36 26.28 53.48 26.28 53.59 26.29 53.7 26.29 53.8 26.29 53.88 26.3 53.92 26.3 53.95 26.3 53.95 26.27 53.97 26.18 53.98 26.07 53.99 25.98 53.97 25.87 53.94 25.76 53.87 25.67 53.79 25.6 53.7 25.53 53.6 25.49 53.49 25.46 53.37 25.45 53.23 25.44 53.08 25.44 52.92 25.44 52.76 25.44 52.59 25.45 52.43 25.47 52.27 25.48 52.11 25.5 51.96 25.52 51.82 25.55 51.69 25.57 51.57 25.6 51.45 25.63 51.36 25.66 51.29 25.69 51.24 25.72 51.59 24.51 51.7 24.47 51.82 24.43 51.93 24.39 52.05 24.37 52.18 24.34 52.3 24.32 52.44 24.3 52.57 24.29 52.71 24.28 52.86 24.27 53 24.27 53.16 24.27 53.32 24.27 53.48 24.27 53.65 24.27 53.82 24.28 53.96 24.29 54.11 24.32 54.27 24.35 54.43 24.4 54.58 24.46 54.74 24.53 54.89 24.61 55.03 24.71 55.16 24.82 55.27 24.94 55.37 25.07 55.45 25.23 55.51 25.39 55.54 25.56 55.54 25.75 55.52 25.95 54.99 28.61 54.99 28.61 54.99 28.61"/><polygon class="cls-4" points="54.78 29.76 54.81 29.73 55.02 28.61 54.96 28.6 54.75 29.72 54.78 29.69 54.78 29.76 54.81 29.75 54.81 29.73 54.78 29.76 54.78 29.76 54.78 29.76"/><polygon class="cls-4" points="53.49 29.72 53.52 29.76 54.78 29.76 54.78 29.69 53.52 29.69 53.55 29.72 53.49 29.72 53.48 29.76 53.52 29.76 53.49 29.72 53.49 29.72 53.49 29.72"/><polygon class="cls-4" points="53.57 29.16 53.52 29.12 53.5 29.2 53.5 29.34 53.5 29.52 53.49 29.72 53.55 29.72 53.56 29.52 53.57 29.34 53.56 29.2 53.56 29.16 53.52 29.12 53.57 29.16 53.57 29.16 53.57 29.16"/><polygon class="cls-4" points="51.61 29.8 51.61 29.8 51.75 29.82 51.89 29.84 52.03 29.84 52.17 29.82 52.32 29.8 52.46 29.78 52.6 29.74 52.74 29.7 52.87 29.65 53 29.59 53.12 29.53 53.23 29.46 53.33 29.39 53.42 29.32 53.5 29.24 53.57 29.16 53.52 29.12 53.45 29.2 53.38 29.27 53.29 29.34 53.2 29.41 53.09 29.47 52.97 29.53 52.85 29.59 52.72 29.64 52.59 29.68 52.45 29.72 52.31 29.74 52.17 29.76 52.03 29.77 51.89 29.78 51.75 29.76 51.62 29.74 51.62 29.74 51.61 29.8 51.61 29.8 51.61 29.8"/><polygon class="cls-4" points="50.39 28.28 50.39 28.28 50.4 28.39 50.41 28.5 50.42 28.62 50.44 28.74 50.47 28.85 50.51 28.96 50.55 29.08 50.62 29.19 50.69 29.29 50.77 29.39 50.87 29.48 50.99 29.56 51.12 29.64 51.26 29.71 51.43 29.76 51.61 29.8 51.62 29.74 51.44 29.7 51.28 29.65 51.15 29.58 51.02 29.51 50.91 29.43 50.82 29.35 50.74 29.25 50.67 29.16 50.62 29.05 50.57 28.94 50.53 28.84 50.5 28.73 50.48 28.61 50.47 28.5 50.46 28.39 50.46 28.28 50.46 28.28 50.39 28.28 50.39 28.28 50.39 28.28"/><polygon class="cls-4" points="52.2 26.35 52.2 26.35 52.02 26.38 51.85 26.42 51.69 26.48 51.52 26.55 51.37 26.63 51.22 26.73 51.08 26.84 50.95 26.96 50.83 27.08 50.73 27.22 50.62 27.38 50.55 27.54 50.48 27.71 50.44 27.89 50.41 28.08 50.39 28.28 50.46 28.28 50.47 28.08 50.5 27.9 50.54 27.73 50.61 27.56 50.69 27.4 50.78 27.26 50.88 27.12 50.99 27 51.12 26.89 51.26 26.78 51.4 26.69 51.55 26.61 51.7 26.54 51.87 26.48 52.03 26.44 52.2 26.41 52.2 26.41 52.2 26.35 52.2 26.35 52.2 26.35"/><polygon class="cls-4" points="53.23 26.24 53.23 26.24 53.18 26.24 53.11 26.25 53.04 26.26 52.96 26.26 52.87 26.27 52.79 26.28 52.7 26.29 52.61 26.3 52.53 26.31 52.46 26.32 52.38 26.32 52.32 26.33 52.27 26.34 52.23 26.34 52.21 26.35 52.2 26.35 52.2 26.41 52.21 26.41 52.24 26.4 52.27 26.4 52.32 26.39 52.38 26.38 52.46 26.38 52.53 26.37 52.61 26.36 52.7 26.35 52.79 26.34 52.87 26.33 52.96 26.32 53.04 26.32 53.11 26.31 53.18 26.31 53.23 26.31 53.23 26.31 53.23 26.24 53.23 26.24 53.23 26.24"/><polygon class="cls-4" points="53.91 26.3 53.95 26.27 53.92 26.27 53.88 26.27 53.8 26.26 53.7 26.25 53.59 26.25 53.48 26.25 53.36 26.24 53.23 26.24 53.23 26.31 53.36 26.31 53.48 26.31 53.59 26.32 53.7 26.32 53.8 26.32 53.88 26.33 53.92 26.33 53.95 26.33 53.97 26.31 53.95 26.33 53.97 26.34 53.97 26.31 53.91 26.3 53.91 26.3 53.91 26.3"/><polygon class="cls-4" points="53.97 25.98 53.96 25.98 53.95 26.07 53.94 26.17 53.92 26.26 53.91 26.3 53.97 26.31 53.98 26.27 54 26.18 54.02 26.07 54.03 25.98 54.02 25.98 53.97 25.98 53.97 25.98 53.97 25.98"/><polygon class="cls-4" points="53.37 25.48 53.37 25.48 53.48 25.49 53.59 25.52 53.69 25.56 53.77 25.62 53.84 25.69 53.91 25.78 53.95 25.87 53.97 25.98 54.02 25.98 54.01 25.86 53.97 25.75 53.89 25.65 53.81 25.57 53.72 25.5 53.61 25.46 53.49 25.43 53.37 25.41 53.37 25.42 53.37 25.48 53.37 25.48 53.37 25.48"/><polygon class="cls-4" points="51.21 25.72 51.26 25.75 51.31 25.72 51.37 25.69 51.46 25.66 51.57 25.63 51.69 25.6 51.82 25.58 51.97 25.55 52.11 25.53 52.27 25.51 52.43 25.5 52.59 25.48 52.76 25.47 52.92 25.47 53.08 25.47 53.23 25.47 53.37 25.48 53.37 25.42 53.23 25.41 53.08 25.4 52.92 25.4 52.76 25.41 52.59 25.42 52.43 25.44 52.27 25.45 52.11 25.47 51.96 25.49 51.81 25.52 51.68 25.54 51.56 25.57 51.45 25.6 51.35 25.63 51.28 25.66 51.22 25.7 51.27 25.73 51.21 25.72 51.21 25.72 51.21 25.72"/><polygon class="cls-4" points="51.58 24.48 51.56 24.51 51.21 25.72 51.27 25.73 51.62 24.52 51.6 24.54 51.58 24.48 51.57 24.49 51.56 24.51 51.58 24.48 51.58 24.48 51.58 24.48"/><polygon class="cls-4" points="53.82 24.25 53.82 24.25 53.65 24.24 53.48 24.23 53.32 24.23 53.16 24.23 53 24.23 52.86 24.25 52.71 24.25 52.57 24.26 52.44 24.27 52.3 24.29 52.17 24.31 52.05 24.34 51.93 24.36 51.81 24.4 51.69 24.44 51.58 24.48 51.6 24.54 51.71 24.5 51.83 24.46 51.94 24.42 52.06 24.4 52.18 24.37 52.31 24.35 52.44 24.33 52.57 24.32 52.71 24.31 52.86 24.31 53 24.31 53.16 24.31 53.32 24.31 53.48 24.31 53.65 24.31 53.82 24.31 53.82 24.31 53.82 24.25 53.82 24.25 53.82 24.25"/><polygon class="cls-4" points="55.55 25.96 55.55 25.96 55.57 25.75 55.57 25.56 55.54 25.38 55.48 25.22 55.4 25.06 55.3 24.92 55.18 24.79 55.05 24.68 54.91 24.59 54.76 24.5 54.59 24.43 54.44 24.37 54.27 24.32 54.12 24.29 53.96 24.26 53.82 24.25 53.82 24.31 53.96 24.32 54.1 24.35 54.26 24.38 54.42 24.43 54.57 24.49 54.72 24.56 54.88 24.64 55.01 24.73 55.14 24.84 55.25 24.96 55.35 25.09 55.42 25.24 55.48 25.39 55.51 25.56 55.51 25.75 55.48 25.95 55.48 25.95 55.55 25.96 55.55 25.96 55.55 25.96"/><polygon class="cls-4" points="55.02 28.61 55.02 28.61 55.55 25.96 55.48 25.95 54.96 28.6 54.96 28.6 55.02 28.61 55.02 28.61 55.02 28.61"/><polygon class="cls-2" points="53.77 27.29 53.76 27.26 53.74 27.24 53.7 27.22 53.65 27.21 53.6 27.2 53.53 27.2 53.46 27.2 53.38 27.2 53.3 27.21 53.22 27.22 53.14 27.23 53.06 27.24 52.99 27.26 52.92 27.27 52.86 27.28 52.81 27.29 52.77 27.3 52.73 27.31 52.68 27.33 52.63 27.35 52.56 27.38 52.5 27.41 52.43 27.45 52.37 27.49 52.3 27.54 52.23 27.59 52.18 27.64 52.12 27.71 52.08 27.78 52.04 27.86 52.01 27.94 52 28.02 51.99 28.2 52.02 28.33 52.06 28.43 52.12 28.51 52.19 28.56 52.28 28.59 52.37 28.6 52.45 28.61 52.6 28.6 52.74 28.59 52.87 28.56 52.99 28.53 53.1 28.49 53.2 28.44 53.29 28.39 53.37 28.33 53.44 28.27 53.5 28.21 53.55 28.15 53.6 28.08 53.63 28.02 53.66 27.96 53.68 27.9 53.69 27.85 53.71 27.71 53.74 27.56 53.76 27.42 53.77 27.29 53.77 27.29 53.77 27.29"/><polygon class="cls-4" points="64.13 29.04 64.14 28.92 64.18 28.78 64.25 28.66 64.34 28.56 64.44 28.47 64.56 28.41 64.69 28.37 64.84 28.36 64.98 28.37 65.11 28.41 65.23 28.47 65.33 28.56 65.42 28.66 65.49 28.78 65.53 28.92 65.54 29.04 65.39 29.04 65.39 28.94 65.36 28.83 65.31 28.73 65.24 28.65 65.16 28.58 65.06 28.53 64.95 28.49 64.84 28.48 64.72 28.49 64.61 28.53 64.51 28.58 64.43 28.65 64.37 28.73 64.32 28.83 64.29 28.94 64.28 29.04 64.13 29.04 64.13 29.04 64.13 29.04"/><polygon class="cls-4" points="64.58 29.04 64.58 28.73 64.86 28.73 64.92 28.74 64.98 28.75 65.02 28.76 65.05 28.78 65.08 28.81 65.1 28.84 65.11 28.88 65.11 28.91 65.11 28.96 65.1 28.99 65.08 29.02 65.07 29.04 64.86 29.04 64.88 29.03 64.92 29.02 64.95 29.02 64.97 29 64.99 28.99 65 28.97 65.01 28.95 65.01 28.91 65.01 28.89 65 28.87 64.98 28.86 64.97 28.85 64.94 28.84 64.92 28.84 64.89 28.84 64.86 28.84 64.71 28.84 64.71 29.04 64.58 29.04 64.58 29.04 64.58 29.04"/><polygon class="cls-4" points="64.13 29.04 64.13 29.07 64.14 29.21 64.18 29.35 64.25 29.47 64.34 29.57 64.44 29.65 64.56 29.72 64.69 29.76 64.84 29.77 64.98 29.76 65.11 29.72 65.23 29.65 65.33 29.57 65.42 29.47 65.49 29.35 65.53 29.21 65.55 29.07 65.54 29.04 65.39 29.04 65.39 29.07 65.39 29.19 65.36 29.3 65.31 29.39 65.24 29.48 65.16 29.55 65.06 29.6 64.95 29.64 64.84 29.65 64.72 29.64 64.61 29.6 64.51 29.55 64.43 29.48 64.37 29.39 64.32 29.3 64.29 29.19 64.28 29.07 64.28 29.04 64.13 29.04 64.13 29.04 64.13 29.04"/><polygon class="cls-4" points="64.58 29.04 64.58 29.34 64.71 29.34 64.71 29.09 64.84 29.09 64.99 29.34 65.09 29.34 64.94 29.09 64.97 29.09 65.01 29.08 65.04 29.07 65.06 29.05 65.07 29.04 64.86 29.04 64.84 29.04 64.71 29.04 64.71 29.04 64.58 29.04 64.58 29.04 64.58 29.04"/><path class="cls-5" d="M64.13,29.06h0v-.15l0-.14.07-.12.09-.11.1-.09.12-.06.13,0H65l.13,0,.12.06.1.09.09.11.07.12,0,.14,0,.15h0l0,.15,0,.14-.07.12-.09.1-.1.08-.12.07-.13,0-.14,0h0l-.14,0-.13,0-.12-.07-.1-.08-.09-.1-.07-.12,0-.14v-.15m.58.28h-.13v-.61H65l0,0,0,0,0,0,0,0v.07h0V29l0,0,0,0h-.1l.15.25H65l-.15-.25h-.13v.25m.13-.3H65v-.08h0v0h-.29V29h.13m0,.61H65l.11,0,.09-.05.08-.07.07-.08.05-.1,0-.11v-.12h0v-.12l0-.11-.05-.1-.07-.09-.08-.07-.09,0-.11,0h-.23l-.11,0-.1,0-.08.07-.06.09-.05.1,0,.11v.12h0v.12l0,.11.05.1.06.08.08.07.1.05.11,0h.12"/><polygon class="cls-4" points="55.36 29.72 56.78 29.72 56.78 29.72 57.29 26.86 57.31 26.75 57.34 26.64 57.37 26.53 57.41 26.42 57.46 26.31 57.52 26.2 57.59 26.1 57.67 26.01 57.76 25.92 57.86 25.84 57.97 25.76 58.1 25.7 58.25 25.65 58.41 25.61 58.59 25.58 58.78 25.57 58.86 25.57 58.9 25.57 58.91 25.57 58.91 25.57 59.14 24.28 59 24.29 58.86 24.31 58.73 24.33 58.61 24.37 58.5 24.41 58.4 24.46 58.3 24.51 58.2 24.57 58.11 24.64 58.02 24.71 57.95 24.79 57.86 24.87 57.79 24.96 57.71 25.05 57.64 25.15 57.57 25.25 57.72 24.34 56.3 24.34 55.36 29.72 55.36 29.72 55.36 29.72 55.36 29.72"/><polyline class="cls-5" points="55.36 29.72 56.78 29.72 56.78 29.72 57.29 26.86 57.29 26.86 57.31 26.75 57.34 26.64 57.37 26.53 57.41 26.42 57.46 26.31 57.52 26.2 57.59 26.1 57.67 26.01 57.76 25.92 57.86 25.84 57.97 25.76 58.1 25.7 58.25 25.65 58.41 25.61 58.59 25.58 58.78 25.57 58.78 25.57 58.86 25.57 58.9 25.57 58.91 25.57 58.91 25.57 59.14 24.28 59.14 24.28 59 24.29 58.86 24.31 58.73 24.33 58.61 24.37 58.5 24.41 58.4 24.46 58.3 24.51 58.2 24.57 58.11 24.64 58.02 24.71 57.95 24.79 57.86 24.87 57.79 24.96 57.71 25.05 57.64 25.15 57.57 25.25 57.72 24.34 56.3 24.34 55.36 29.72 55.36 29.72"/><polygon class="cls-4" points="42.04 29.72 43.46 29.72 43.49 29.72 43.97 26.86 43.99 26.75 44.01 26.64 44.04 26.54 44.08 26.44 44.12 26.34 44.16 26.24 44.23 26.15 44.3 26.07 44.38 25.99 44.47 25.91 44.58 25.86 44.7 25.8 44.84 25.75 44.99 25.71 45.17 25.69 45.36 25.67 45.38 25.67 45.4 25.68 45.42 25.68 45.45 25.68 45.47 25.69 45.49 25.69 45.51 25.7 45.51 25.7 45.52 25.68 45.53 25.62 45.55 25.53 45.58 25.42 45.61 25.29 45.65 25.15 45.7 25 45.74 24.86 45.78 24.77 45.83 24.67 45.88 24.58 45.93 24.49 45.98 24.42 46.01 24.36 46.04 24.32 46.05 24.31 46.04 24.31 46.02 24.3 46 24.3 45.96 24.29 45.93 24.29 45.89 24.29 45.85 24.28 45.82 24.28 45.66 24.29 45.52 24.31 45.39 24.33 45.27 24.36 45.15 24.4 45.05 24.45 44.95 24.5 44.86 24.56 44.77 24.63 44.69 24.7 44.62 24.78 44.54 24.86 44.47 24.95 44.4 25.05 44.32 25.15 44.24 25.25 44.43 24.34 42.98 24.34 42.04 29.72 42.04 29.72 42.04 29.72 42.04 29.72"/><polyline class="cls-5" points="42.04 29.72 43.46 29.72 43.49 29.72 43.97 26.86 43.97 26.86 43.99 26.75 44.01 26.64 44.04 26.54 44.08 26.44 44.12 26.34 44.16 26.24 44.23 26.15 44.3 26.07 44.38 25.99 44.47 25.91 44.58 25.86 44.7 25.8 44.84 25.75 44.99 25.71 45.17 25.69 45.36 25.67 45.36 25.67 45.38 25.67 45.4 25.68 45.42 25.68 45.45 25.68 45.47 25.69 45.49 25.69 45.51 25.7 45.51 25.7 45.51 25.7 45.52 25.68 45.53 25.62 45.55 25.53 45.58 25.42 45.61 25.29 45.65 25.15 45.7 25 45.74 24.86 45.74 24.86 45.78 24.77 45.83 24.67 45.88 24.58 45.93 24.49 45.98 24.42 46.01 24.36 46.04 24.32 46.05 24.31 46.05 24.31 46.04 24.31 46.02 24.3 46 24.3 45.96 24.29 45.93 24.29 45.89 24.29 45.85 24.28 45.82 24.28 45.82 24.28 45.66 24.29 45.52 24.31 45.39 24.33 45.27 24.36 45.15 24.4 45.05 24.45 44.95 24.5 44.86 24.56 44.77 24.63 44.69 24.7 44.62 24.78 44.54 24.86 44.47 24.95 44.4 25.05 44.32 25.15 44.24 25.25 44.43 24.34 42.98 24.34 42.04 29.72 42.04 29.72"/><polygon class="cls-2" points="64.14 35.02 64.14 35 64.18 34.87 64.25 34.75 64.34 34.65 64.44 34.57 64.56 34.51 64.69 34.47 64.84 34.46 64.98 34.47 65.11 34.51 65.23 34.57 65.33 34.65 65.42 34.75 65.49 34.87 65.53 35 65.53 35.02 65.39 35.02 65.36 34.91 65.31 34.81 65.24 34.73 65.16 34.66 65.06 34.6 64.95 34.57 64.84 34.56 64.72 34.57 64.61 34.6 64.51 34.66 64.43 34.73 64.37 34.81 64.32 34.91 64.29 35.02 64.14 35.02 64.14 35.02 64.14 35.02"/><polygon class="cls-2" points="64.58 35.02 64.58 34.84 64.86 34.84 64.92 34.84 64.98 34.85 65.02 34.86 65.05 34.88 65.08 34.91 65.1 34.94 65.11 34.97 65.11 35.02 65.01 35.02 65.01 34.99 65.01 34.97 65 34.95 64.98 34.94 64.97 34.93 64.94 34.92 64.92 34.92 64.89 34.92 64.86 34.92 64.71 34.92 64.71 35.02 64.58 35.02 64.58 35.02 64.58 35.02"/><polygon class="cls-2" points="64.13 35.13 64.14 35.02 64.29 35.02 64.29 35.02 64.28 35.13 64.13 35.13 64.13 35.13 64.13 35.13"/><polygon class="cls-2" points="64.58 35.13 64.58 35.02 64.71 35.02 64.71 35.12 64.84 35.12 64.88 35.11 64.92 35.1 64.95 35.09 64.97 35.08 64.99 35.07 65 35.05 65.01 35.03 65.01 35.02 65.11 35.02 65.11 35.02 65.11 35.05 65.1 35.08 65.08 35.11 65.06 35.13 64.58 35.13 64.58 35.13 64.58 35.13"/><polygon class="cls-2" points="65.39 35.13 65.39 35.02 65.39 35.02 65.53 35.02 65.55 35.13 65.39 35.13 65.39 35.13 65.39 35.13"/><polygon class="cls-2" points="64.13 35.13 64.13 35.14 64.14 35.29 64.18 35.42 64.25 35.55 64.34 35.65 64.44 35.74 64.56 35.8 64.69 35.84 64.84 35.85 64.98 35.84 65.11 35.8 65.23 35.74 65.33 35.65 65.42 35.55 65.49 35.42 65.53 35.29 65.55 35.14 65.55 35.13 65.39 35.13 65.39 35.14 65.39 35.26 65.36 35.37 65.31 35.47 65.24 35.55 65.16 35.63 65.06 35.68 64.95 35.72 64.84 35.73 64.72 35.72 64.61 35.68 64.51 35.63 64.43 35.55 64.37 35.47 64.32 35.37 64.29 35.26 64.28 35.14 64.28 35.13 64.13 35.13 64.13 35.13 64.13 35.13"/><polygon class="cls-2" points="64.58 35.13 64.58 35.42 64.71 35.42 64.71 35.17 64.84 35.17 64.99 35.42 65.09 35.42 64.94 35.17 64.97 35.17 65.01 35.16 65.04 35.15 65.06 35.13 65.06 35.13 64.58 35.13 64.58 35.13 64.58 35.13"/><path class="cls-4" d="M42.2,25.94l0-.3-.07-.27-.1-.23-.13-.2-.15-.17-.17-.14-.18-.12-.2-.09-.2-.08-.21-.05-.2,0-.21,0h-.2l-.41,0-.36.06-.33.09-.29.13-.25.15-.22.17-.2.19-.16.2-.14.21-.12.22-.09.22-.08.22-.06.21,0,.2,0,.19,0,.16,0,.41v.37l.06.34.09.3.12.27.15.23.17.21.2.17.21.15.23.13.24.1.25.07.25.06.25,0,.25,0H41l.09,0,.09,0,.08,0,.08,0,.08,0,.08,0,.08,0,.08,0,.08,0,.2-1.24-.15.09-.14.08-.15.06-.14.06-.14,0-.14,0-.14,0-.14,0H40l-.12,0-.13,0-.1,0-.1,0-.1,0-.09-.06-.09-.06-.08-.07-.08-.08L39,28.1,38.95,28l-.05-.09,0-.09,0-.1,0-.1v-.25h3.26l0-.31.08-.42,0-.38Zm-1.36.46H39v-.07l0-.11,0-.1,0-.1,0-.09,0-.09.05-.08.06-.08.07-.07.06-.06.08-.06.08,0,.09,0,.09,0,.09,0,.09,0h.19l.09,0,.08,0,.08,0,.08,0,.08,0,.07.05.06.06.05.07.05.08,0,.09,0,.1,0,.1v.36Z"/></g></g></svg>