<svg xmlns="http://www.w3.org/2000/svg" viewBox="0 0 27.6 35.79"><defs><style>.cls-1{fill:gray;}</style></defs><title>Privado</title><g id="Layer_2" data-name="Layer 2"><g id="Capa_1" data-name="Capa 1"><path class="cls-1" d="M27.6,35.79H0V15.17H27.6ZM1.21,34.58H26.39V16.38H1.21Z"/><path class="cls-1" d="M23.05,15.77H21.84V5.46a4.25,4.25,0,0,0-4.25-4.25H10A4.25,4.25,0,0,0,5.76,5.46V15.77H4.55V5.46A5.47,5.47,0,0,1,10,0h7.58a5.47,5.47,0,0,1,5.46,5.46Z"/><path class="cls-1" d="M13.8,30a3.34,3.34,0,0,1-3.34-3.34V22.14a3.34,3.34,0,1,1,6.67,0v4.55A3.34,3.34,0,0,1,13.8,30Zm0-10a2.13,2.13,0,0,0-2.12,2.12v4.55a2.12,2.12,0,1,0,4.25,0V22.14A2.13,2.13,0,0,0,13.8,20Z"/></g></g></svg>