<svg xmlns="http://www.w3.org/2000/svg" viewBox="0 0 38.91 38.92"><defs><style>.cls-1{fill:#78cbef;}.cls-2{fill:#fff;}</style></defs><title>Twitter</title><g id="Layer_2" data-name="Layer 2"><g id="Capa_1" data-name="Capa 1"><rect class="cls-1" width="38.91" height="38.92"/><path class="cls-2" d="M29.22,14.36a8,8,0,0,1-2.3.63,4,4,0,0,0,1.76-2.21,8,8,0,0,1-2.54,1,4,4,0,0,0-6.81,3.65,11.35,11.35,0,0,1-8.24-4.18,4,4,0,0,0,1.24,5.34,4,4,0,0,1-1.81-.5v0A4,4,0,0,0,13.72,22a3.9,3.9,0,0,1-1.05.14,4,4,0,0,1-.75-.07,4,4,0,0,0,3.73,2.78,8,8,0,0,1-5,1.71,8.15,8.15,0,0,1-1-.05,11.37,11.37,0,0,0,17.51-9.58c0-.17,0-.35,0-.52a8.1,8.1,0,0,0,2-2.07"/></g></g></svg>