<svg xmlns="http://www.w3.org/2000/svg" viewBox="0 0 83.13 51.96"><defs><style>.cls-1{fill:#3957a7;}.cls-2{fill:#fff;}.cls-3{fill:#f9a533;}</style></defs><title>Visa</title><g id="Layer_2" data-name="Layer 2"><g id="Capa_1" data-name="Capa 1"><rect class="cls-1" width="83.13" height="51.96" rx="2.77" ry="2.77"/><polygon class="cls-2" points="38.26 33.78 34.19 33.78 36.73 18.18 40.79 18.18 38.26 33.78"/><path class="cls-2" d="M30.78,18.18,26.91,28.91l-.46-2.31h0l-1.37-7a1.74,1.74,0,0,0-1.93-1.4h-6.4l-.07.26a15.16,15.16,0,0,1,4.25,1.78l3.53,13.55h4.23l6.46-15.6Z"/><path class="cls-2" d="M62.72,33.78h3.73L63.2,18.18H59.93a1.87,1.87,0,0,0-1.88,1.16L52,33.78h4.23l.85-2.32h5.16Zm-4.47-5.52,2.13-5.84,1.2,5.84Z"/><path class="cls-2" d="M52.32,21.94l.58-3.35a11.72,11.72,0,0,0-3.65-.68c-2,0-6.8.88-6.8,5.16,0,4,5.62,4.08,5.62,6.2s-5,1.74-6.7.4l-.6,3.5a11.37,11.37,0,0,0,4.58.88c2.77,0,7-1.44,7-5.34,0-4.06-5.67-4.43-5.67-6.2S50.58,21,52.32,21.94Z"/><path class="cls-3" d="M26.45,26.6l-1.37-7a1.74,1.74,0,0,0-1.93-1.4h-6.4l-.07.26a15.73,15.73,0,0,1,6,3A12.17,12.17,0,0,1,26.45,26.6Z"/></g></g></svg>